<svg xmlns="http://www.w3.org/2000/svg" xmlns:xlink="http://www.w3.org/1999/xlink" width="792.846" height="163.098" viewBox="0 0 792.846 163.098">
  <defs>
    <clipPath id="clip-path">
      <path id="Pfad_5" data-name="Pfad 5" d="M0-11.838H792.846v-163.1H0Z" transform="translate(0 174.936)" fill="none"/>
    </clipPath>
  </defs>
  <g id="Gruppe_10" data-name="Gruppe 10" transform="translate(0 174.937)">
    <g id="Gruppe_3" data-name="Gruppe 3" transform="translate(0 -174.937)">
      <path id="Pfad_1" data-name="Pfad 1" d="M-7.718,0l-8.241,3.563-98.088,42.509v26.9l98.088-42.509L-7.718,26.9Z" transform="translate(114.047)" fill="#ffea3d"/>
    </g>
    <g id="Gruppe_4" data-name="Gruppe 4" transform="translate(0.025 -173.188)">
      <path id="Pfad_2" data-name="Pfad 2" d="M0-6.429V20.409L204.326-68.173V-95.006Z" transform="translate(0 95.006)" fill="#ffea3d"/>
    </g>
    <g id="Gruppe_5" data-name="Gruppe 5" transform="translate(0.025 -129.001)">
      <path id="Pfad_3" data-name="Pfad 3" d="M0-6.429V20.409L204.326-68.169V-95.006Z" transform="translate(0 95.006)" fill="#ffea3d"/>
    </g>
    <g id="Gruppe_6" data-name="Gruppe 6" transform="translate(98.088 -84.813)">
      <path id="Pfad_4" data-name="Pfad 4" d="M-.6-3.086-8.839.476v26.9L-.6,23.813l98-42.5V-45.6Z" transform="translate(8.839 45.595)" fill="#ffea3d"/>
    </g>
    <g id="Gruppe_7" data-name="Gruppe 7" transform="translate(0 -174.936)" clip-path="url(#clip-path)">
      <g id="Gruppe" transform="translate(247.629 -3.525)">
        <path id="Pfad_8" data-name="Pfad 8" d="M79.905-57.33c-8.505,0-15.855,3.465-20.37,9.24-3.99-6.195-10.71-9.24-18.585-9.24-7.245,0-13.545,2.52-17.745,7.35v-6.51H7.56V0H23.94V-28.35c0-10.08,5.145-14.805,12.39-14.805,6.825,0,10.71,4.2,10.71,13.335V0H63.42V-28.35c0-10.08,5.145-14.805,12.5-14.805,6.615,0,10.71,4.2,10.71,13.335V0h16.38V-32.34C103.005-49.56,93.345-57.33,79.905-57.33Zm79.38.84v5.985c-4.1-4.62-9.975-6.825-16.9-6.825-15.96,0-28.245,11.34-28.245,29.085S126.42.84,142.38.84c7.56,0,13.545-2.415,17.64-7.35V0h15.645V-56.49ZM145.215-12.6c-8.19,0-14.49-5.88-14.49-15.645s6.3-15.645,14.49-15.645c8.085,0,14.385,5.88,14.385,15.645S153.3-12.6,145.215-12.6Zm86.1-43.89v24.465c0,10.4-5.46,15.225-13.02,15.225-7.245,0-11.445-4.2-11.445-13.755V-56.49H190.47v28.35c0,17.535,9.975,25.41,24.15,25.41a23.137,23.137,0,0,0,16.7-6.51v1.89c0,10.185-4.725,15.33-15.75,15.33-7.035,0-14.385-2.415-19.11-6.3l-6.51,11.76c6.51,5.145,16.59,7.77,26.985,7.77,19.74,0,30.765-9.66,30.765-30.66V-56.49Zm72.135,0v27.93c0,10.4-5.46,15.225-13.02,15.225-7.245,0-11.445-4.2-11.445-13.65V-56.49H262.6v31.92C262.6-7.14,272.58.84,286.755.84A22.855,22.855,0,0,0,304.29-6.72V0h15.54V-56.49Zm103.95-.84c-8.505,0-15.855,3.465-20.37,9.24-3.99-6.195-10.71-9.24-18.585-9.24-7.245,0-13.545,2.52-17.745,7.35v-6.51H335.055V0h16.38V-28.35c0-10.08,5.145-14.805,12.39-14.805,6.825,0,10.71,4.2,10.71,13.335V0h16.38V-28.35c0-10.08,5.145-14.805,12.495-14.805,6.615,0,10.71,4.2,10.71,13.335V0H430.5V-32.34C430.5-49.56,420.84-57.33,407.4-57.33Zm79.38.84v5.985c-4.1-4.62-9.975-6.825-16.9-6.825-15.96,0-28.245,11.34-28.245,29.085S453.915.84,469.875.84c7.56,0,13.545-2.415,17.64-7.35V0H503.16V-56.49ZM472.71-12.6c-8.19,0-14.49-5.88-14.49-15.645s6.3-15.645,14.49-15.645c8.085,0,14.385,5.88,14.385,15.645S480.795-12.6,472.71-12.6Z" transform="translate(0 102)" fill="#fff"/>
        <path id="Pfad_9" data-name="Pfad 9" d="M13.624.832A9.928,9.928,0,0,0,23.712-9.36a9.7,9.7,0,0,0-10.088-9.984A9.7,9.7,0,0,0,3.536-9.36,9.928,9.928,0,0,0,13.624.832Z" transform="translate(520.766 101)" fill="#fff"/>
      </g>
    </g>
  </g>
</svg>
