<svg xmlns="http://www.w3.org/2000/svg" width="486.432" height="79.599" viewBox="0 0 486.432 79.599">
  <g id="logo.mayuma" transform="translate(-112.88 -169.237)">
    <path id="Pfad_1" data-name="Pfad 1" d="M206.544,247.533H115.88l15.039-77.99,30.294,23.741,30.293-23.741Z" transform="translate(-3 0.123)" fill="#fff"/>
    <path id="Pfad_2" data-name="Pfad 2" d="M221.95,169.237,261.8,247.656H182.1Z" transform="translate(26.999)" fill="#fff"/>
    <path id="Pfad_3" data-name="Pfad 3" d="M281.373,213.969v32.764H254.517V217.727l-23.525-46.191h71.973Z" transform="translate(46.634 0.923)" fill="#fff"/>
    <path id="Pfad_4" data-name="Pfad 4" d="M349.182,171.54v39.412c0,12.8,0,36.959-31.255,36.959-31.367,0-31.367-24.163-31.367-36.959V171.54Z" transform="translate(68.948 0.925)" fill="#fff"/>
    <path id="Pfad_5" data-name="Pfad 5" d="M425.658,247.533H334.992l15.04-77.99,30.293,23.741,30.292-23.741Z" transform="translate(88.397 0.123)" fill="#fff"/>
    <path id="Pfad_6" data-name="Pfad 6" d="M441.063,169.237l39.854,78.419H401.208Z" transform="translate(118.395)" fill="#fff"/>
  </g>
</svg>
