<svg id="logo.startscreen" xmlns="http://www.w3.org/2000/svg" width="208.835" height="215.484" viewBox="0 0 208.835 215.484">
  <g id="text.Logo.Startscreen" transform="translate(-30.443 175.96)">
    <path id="Cupking_Text" data-name="Cupking Text" d="M-78.456-35.7l-1.422,10.715a9.021,9.021,0,0,0-1.473-.279,14.3,14.3,0,0,0-1.473-.076,12.748,12.748,0,0,0-3.58.5,8.909,8.909,0,0,0-3.009,1.511,7.433,7.433,0,0,0-2.082,2.539,7.8,7.8,0,0,0-.774,3.58,5.708,5.708,0,0,0,.419,2.285,4.247,4.247,0,0,0,1.181,1.6,4.949,4.949,0,0,0,1.8.939,8.112,8.112,0,0,0,2.285.3,9.967,9.967,0,0,0,1.955-.2,16.685,16.685,0,0,0,2.006-.533,19.038,19.038,0,0,0,1.93-.762q.939-.432,1.727-.889L-79.979-2.539a16.011,16.011,0,0,1-2.146.9q-1.155.394-2.374.686a22.358,22.358,0,0,1-2.437.444,18.85,18.85,0,0,1-2.336.152,15.153,15.153,0,0,1-6.018-1.193,15.051,15.051,0,0,1-4.85-3.275,15.277,15.277,0,0,1-3.237-4.913,15.7,15.7,0,0,1-1.181-6.106,26.45,26.45,0,0,1,1.244-8.188,20.039,20.039,0,0,1,3.656-6.741,17.167,17.167,0,0,1,5.979-4.57,19.113,19.113,0,0,1,8.214-1.676,23.937,23.937,0,0,1,3.593.279A11.884,11.884,0,0,1-78.456-35.7Zm32.487,7.465q0,1.879-.178,4.139t-.584,4.672q-.406,2.412-1.054,4.888A34.968,34.968,0,0,1-49.4-9.775,28.067,28.067,0,0,1-51.644-5.5a16.86,16.86,0,0,1-2.945,3.479A13.009,13.009,0,0,1-58.309.317a11.851,11.851,0,0,1-4.57.851A12.66,12.66,0,0,1-68,.216a11.493,11.493,0,0,1-3.72-2.564,13.6,13.6,0,0,1-2.539-3.758A23.562,23.562,0,0,1-75.8-10.651a34.767,34.767,0,0,1-.774-4.9q-.216-2.5-.216-4.812a71.025,71.025,0,0,1,.355-7.1q.355-3.542,1.016-7.071l11.883.457q-.686,3.986-1.181,8.011a66.166,66.166,0,0,0-.5,8.087q0,.432.038,1.282t.14,1.9q.1,1.054.292,2.158a11.9,11.9,0,0,0,.521,2.019,5.187,5.187,0,0,0,.8,1.5,1.386,1.386,0,0,0,1.1.584,1.7,1.7,0,0,0,1.32-.7A6.506,6.506,0,0,0-59.972-11.1a18.814,18.814,0,0,0,.774-2.691q.33-1.523.559-3.174t.368-3.3q.14-1.65.229-3.072t.114-2.514q.025-1.092.025-1.625,0-1.98-.063-3.948t-.19-3.923h11.883Q-45.969-31.84-45.969-28.234Zm32.131,3.809a12.05,12.05,0,0,1-.736,4.367,10.644,10.644,0,0,1-2.019,3.326A12.172,12.172,0,0,1-19.6-14.32,18.775,18.775,0,0,1-23.3-12.708a24.774,24.774,0,0,1-4.075.914,33.162,33.162,0,0,1-4.139.317V.355H-43.341q0-5.814.025-11.578t.076-11.629q.051-3.1.025-6.2t.127-6.246a47.143,47.143,0,0,1,6.5-1.447,45.606,45.606,0,0,1,6.7-.482,24.364,24.364,0,0,1,3.91.317,18.917,18.917,0,0,1,3.745,1A16.679,16.679,0,0,1-18.9-34.188a11.446,11.446,0,0,1,2.653,2.45A11.386,11.386,0,0,1-14.485-28.5,12.074,12.074,0,0,1-13.837-24.426Zm-11.273.863a3.335,3.335,0,0,0-1-2.577,3.683,3.683,0,0,0-2.6-.927,7.186,7.186,0,0,0-1.1.089q-.571.089-1.079.216l-.3,7.414a4.848,4.848,0,0,0,.686.051h.686a5.194,5.194,0,0,0,1.765-.3,4.716,4.716,0,0,0,1.511-.876A4.4,4.4,0,0,0-25.5-21.823,3.784,3.784,0,0,0-25.111-23.562Zm45.385-12.8L8.036-19.449,18.345-1.473,6.563.609-1.155-10.359-1.562,1.117l-10.562.406.813-38.9,11.832.66L-.394-25.238,7.478-37.375Zm13.977.609L31.458-1.168,20.744-.609v-34.43Zm36.8-.66L69.227-1.98,55.922-.762,48.812-19.2,47.7-.406H36.269l.914-36,12.7-.609,8.785,18.281L59.07-36ZM104.278-5.18a11.908,11.908,0,0,1-2.945,2.615A19.4,19.4,0,0,1,97.575-.711a23.8,23.8,0,0,1-4.113,1.1A23.338,23.338,0,0,1,89.45.762,17.111,17.111,0,0,1,82.67-.559,16.159,16.159,0,0,1,77.326-4.2a16.831,16.831,0,0,1-3.517-5.472,17.957,17.957,0,0,1-1.27-6.779,23.217,23.217,0,0,1,.635-5.421,23.018,23.018,0,0,1,1.815-5,20.982,20.982,0,0,1,2.882-4.316,18.624,18.624,0,0,1,3.859-3.39,18.284,18.284,0,0,1,4.723-2.209,18.6,18.6,0,0,1,5.484-.787q1.092,0,2.336.089a24.4,24.4,0,0,1,2.476.3,17.441,17.441,0,0,1,2.4.6,11.13,11.13,0,0,1,2.133.939l-.711,9.7a12.928,12.928,0,0,0-2.933-.724,23.643,23.643,0,0,0-2.958-.19,11.337,11.337,0,0,0-3.8.622,9.093,9.093,0,0,0-3.072,1.79,8.447,8.447,0,0,0-2.069,2.844,9.044,9.044,0,0,0-.762,3.783,9.155,9.155,0,0,0,.355,2.552,6.591,6.591,0,0,0,1.079,2.184,5.555,5.555,0,0,0,1.8,1.536,5.173,5.173,0,0,0,2.5.584,8.3,8.3,0,0,0,1.993-.254,4.364,4.364,0,0,0,1.765-.863l.1-1.98-6.094-.1.3-7.617q3.783-.127,7.566-.216t7.617-.241Z" transform="translate(135 38)" fill="#fff"/>
  </g>
  <g id="Cupking_Logo" data-name="Cupking Logo" transform="translate(21.557)">
    <path id="Pfad_1" data-name="Pfad 1" d="M29.167,180.758c0,3.18,29.214,5.757,65.251,5.757s65.251-2.578,65.251-5.757S130.455,175,94.418,175s-65.251,2.578-65.251,5.757Z" transform="translate(-11.894 -38.741)" fill="#45413c" opacity="0.15"/>
    <path id="Pfad_2" data-name="Pfad 2" d="M75.883,98.8C68.974,92.163,63.025,74.737,58.5,61.725a1.919,1.919,0,0,0-3.608,0C50.358,74.737,44.409,92.163,37.5,98.8Z" transform="translate(-12.551 -29.714)" fill="#ebcb00"/>
    <path id="Pfad_3" data-name="Pfad 3" d="M120.833,98.8c6.909-6.64,12.858-24.066,17.387-37.078a1.919,1.919,0,0,1,3.608,0c4.529,13.012,10.479,30.438,17.387,37.078Z" transform="translate(-19.119 -29.714)" fill="#ebcb00"/>
    <path id="Pfad_4" data-name="Pfad 4" d="M92.2,48.728a1.881,1.881,0,0,1,3.531,0c5.143,13.089,20.573,49.053,34.545,49.053,12.167,0,24.373-17.2,30.476-27.329a1.958,1.958,0,0,1,3.57,1.151l-3.186,54.964c0,13.779-30.092,24.949-67.17,24.949S26.8,140.348,26.8,126.568L23.458,71.6a1.958,1.958,0,0,1,3.57-1.151c6.1,10.056,18.309,27.329,30.476,27.329C71.629,97.781,87.059,61.816,92.2,48.728Z" transform="translate(-11.444 -28.692)" fill="#ffe500"/>
    <path id="Pfad_5" data-name="Pfad 5" d="M49.418,145.222l62.909-62.909A201.739,201.739,0,0,1,95.746,48.728a1.881,1.881,0,0,0-3.531,0C87.072,61.816,71.642,97.781,57.671,97.781c-12.167,0-24.373-17.2-30.476-27.329a1.958,1.958,0,0,0-3.57,1.151l3.186,54.964C26.811,133.976,35.6,140.616,49.418,145.222Z" transform="translate(-11.458 -28.692)" fill="#fe5"/>
    <path id="Pfad_6" data-name="Pfad 6" d="M92.2,48.728a1.881,1.881,0,0,1,3.531,0c5.143,13.089,20.573,49.053,34.545,49.053,12.167,0,24.373-17.2,30.476-27.329a1.958,1.958,0,0,1,3.57,1.151l-3.186,54.964c0,13.779-30.092,24.949-67.17,24.949S26.8,140.348,26.8,126.568L23.458,71.6a1.958,1.958,0,0,1,3.57-1.151c6.1,10.056,18.309,27.329,30.476,27.329C71.629,97.781,87.059,61.816,92.2,48.728Z" transform="translate(-11.444 -28.692)" fill="none"/>
    <path id="Pfad_7" data-name="Pfad 7" d="M112.285,115.517a13.434,13.434,0,1,0-26.868,0v7.677a13.434,13.434,0,0,0,26.868,0Z" transform="translate(-16.328 -32.994)" fill="#e03737"/>
    <path id="Pfad_8" data-name="Pfad 8" d="M98.851,132.184A13.434,13.434,0,0,1,85.417,118.75v5.757a13.434,13.434,0,0,0,26.868,0V118.75a13.434,13.434,0,0,1-13.434,13.434Z" transform="translate(-16.328 -34.308)" fill="#d91d1d"/>
    <path id="Pfad_9" data-name="Pfad 9" d="M98.849,102.083a13.434,13.434,0,0,0-13.434,13.434v7.677a7.3,7.3,0,0,0,0,.96,13.357,13.357,0,0,1,26.638,0,7.3,7.3,0,0,0,0-.96v-7.677a13.434,13.434,0,0,0-13.206-13.434Z" transform="translate(-16.326 -32.994)" fill="#ff4242"/>
    <path id="Pfad_10" data-name="Pfad 10" d="M112.285,115.517a13.434,13.434,0,1,0-26.868,0v7.677a13.434,13.434,0,0,0,26.868,0Z" transform="translate(-16.328 -32.994)" fill="none"/>
    <path id="Pfad_11" data-name="Pfad 11" d="M139.583,122.26a7.677,7.677,0,1,0,7.677-7.677A7.677,7.677,0,0,0,139.583,122.26Z" transform="translate(-20.597 -33.979)" fill="#ff4242"/>
    <path id="Pfad_12" data-name="Pfad 12" d="M43.75,122.26a7.677,7.677,0,1,0,7.677-7.677A7.677,7.677,0,0,0,43.75,122.26Z" transform="translate(-13.044 -33.979)" fill="#ff4242"/>
    <path id="Pfad_13" data-name="Pfad 13" d="M27.083,152.525c0,13.779,30.092,24.949,67.17,24.949s67.17-11.169,67.17-24.949V133.333c0,13.779-30.092,24.949-67.17,24.949s-67.17-11.169-67.17-24.949Z" transform="translate(-11.73 -35.457)" fill="#c0dceb"/>
    <path id="Pfad_14" data-name="Pfad 14" d="M94.253,158.282c-37.078,0-67.17-11.169-67.17-24.949v9.6c0,13.779,30.092,24.949,67.17,24.949s67.17-11.169,67.17-24.949v-9.6C161.423,147.113,131.331,158.282,94.253,158.282Z" transform="translate(-11.73 -35.457)" fill="#e8f4fa"/>
    <path id="Pfad_15" data-name="Pfad 15" d="M27.083,152.525c0,13.779,30.092,24.949,67.17,24.949s67.17-11.169,67.17-24.949V133.333c0,13.779-30.092,24.949-67.17,24.949s-67.17-11.169-67.17-24.949Z" transform="translate(-11.73 -35.457)" fill="none"/>
    <path id="Pfad_16" data-name="Pfad 16" d="M47.917,51.262a9.6,9.6,0,1,0,9.6-9.6A9.6,9.6,0,0,0,47.917,51.262Z" transform="translate(-13.372 -28.233)" fill="#ffe500"/>
    <path id="Pfad_17" data-name="Pfad 17" d="M50.718,58.055A9.608,9.608,0,0,1,64.305,44.468Z" transform="translate(-13.371 -28.232)" fill="#fe5"/>
    <path id="Pfad_18" data-name="Pfad 18" d="M47.917,51.262a9.6,9.6,0,1,0,9.6-9.6A9.6,9.6,0,0,0,47.917,51.262Z" transform="translate(-13.372 -28.233)" fill="none"/>
    <path id="Pfad_19" data-name="Pfad 19" d="M131.25,51.262a9.6,9.6,0,1,0,9.6-9.6A9.6,9.6,0,0,0,131.25,51.262Z" transform="translate(-19.94 -28.233)" fill="#ffe500"/>
    <path id="Pfad_20" data-name="Pfad 20" d="M134.051,58.055a9.608,9.608,0,0,1,13.588-13.588Z" transform="translate(-19.939 -28.232)" fill="#fe5"/>
    <path id="Pfad_21" data-name="Pfad 21" d="M131.25,51.262a9.6,9.6,0,1,0,9.6-9.6A9.6,9.6,0,0,0,131.25,51.262Z" transform="translate(-19.94 -28.233)" fill="none"/>
    <path id="Pfad_22" data-name="Pfad 22" d="M10.417,59.432A11.515,11.515,0,1,0,21.932,47.917,11.515,11.515,0,0,0,10.417,59.432Z" transform="translate(-10.417 -28.725)" fill="#ffe500"/>
    <path id="Pfad_23" data-name="Pfad 23" d="M13.819,67.593A11.515,11.515,0,0,1,30.093,51.319Z" transform="translate(-10.441 -28.75)" fill="#fe5"/>
    <path id="Pfad_24" data-name="Pfad 24" d="M10.417,59.432A11.515,11.515,0,1,0,21.932,47.917,11.515,11.515,0,0,0,10.417,59.432Z" transform="translate(-10.417 -28.725)" fill="none"/>
    <path id="Pfad_25" data-name="Pfad 25" d="M87.5,38.6A11.515,11.515,0,1,0,99.015,27.083,11.515,11.515,0,0,0,87.5,38.6Z" transform="translate(-16.492 -27.083)" fill="#ffe500"/>
    <path id="Pfad_26" data-name="Pfad 26" d="M90.9,46.76a11.515,11.515,0,0,1,16.274-16.274Z" transform="translate(-16.516 -27.108)" fill="#fe5"/>
    <path id="Pfad_27" data-name="Pfad 27" d="M87.5,38.6A11.515,11.515,0,1,0,99.015,27.083,11.515,11.515,0,0,0,87.5,38.6Z" transform="translate(-16.492 -27.083)" fill="none"/>
    <path id="Pfad_28" data-name="Pfad 28" d="M164.583,59.432A11.515,11.515,0,1,0,176.1,47.917,11.515,11.515,0,0,0,164.583,59.432Z" transform="translate(-22.567 -28.725)" fill="#ffe500"/>
    <path id="Pfad_29" data-name="Pfad 29" d="M167.937,67.544A11.515,11.515,0,1,1,184.211,51.27Z" transform="translate(-22.542 -28.701)" fill="#fe5"/>
    <path id="Pfad_30" data-name="Pfad 30" d="M164.583,59.432A11.515,11.515,0,1,0,176.1,47.917,11.515,11.515,0,0,0,164.583,59.432Z" transform="translate(-22.567 -28.725)" fill="none"/>
  </g>
</svg>
